<svg id="コンポーネント_5_1" data-name="コンポーネント 5 – 1" xmlns="http://www.w3.org/2000/svg" xmlns:xlink="http://www.w3.org/1999/xlink" width="31.841" height="29.063" viewBox="0 0 31.841 29.063">
  <defs>
    <clipPath id="clip-path">
      <path id="パス_7" data-name="パス 7" d="M15.92,29.063c-8.56-5.8-13.05-11.082-14.891-15.5C-3.9,1.722,10.186-3.94,15.92,3.049c5.735-6.99,19.824-1.327,14.891,10.513C28.97,17.981,24.481,23.26,15.92,29.063Z" fill="#fff"/>
    </clipPath>
  </defs>
  <g id="パス_1" data-name="パス 1" transform="translate(0 0)" fill="#fff">
    <path d="M 15.92039775848389 28.4578685760498 C 12.01311588287354 25.78629875183105 8.784815788269043 23.09416007995605 6.320857524871826 20.45239448547363 C 4.067457675933838 18.0363655090332 2.442417860031128 15.65358543395996 1.490877747535706 13.3702449798584 C 0.7409477829933167 11.57007503509521 0.4140377640724182 9.843225479125977 0.5192577838897705 8.237705230712891 C 0.6137277483940125 6.79618501663208 1.052077770233154 5.479645252227783 1.822137713432312 4.324645042419434 C 3.394997835159302 1.965525031089783 6.246777534484863 0.5000050067901611 9.264607429504395 0.5000050067901611 C 11.79071807861328 0.5000050067901611 14.01717758178711 1.51804506778717 15.53385734558105 3.36658501625061 L 15.92039775848389 3.837705135345459 L 16.30693817138672 3.36658501625061 C 17.82361793518066 1.51804506778717 20.05007743835449 0.5000050067901611 22.57618713378906 0.5000050067901611 C 25.59430694580078 0.5000050067901611 28.44621849060059 1.96542501449585 30.01897811889648 4.324395179748535 C 30.78900718688965 5.479344844818115 31.22730827331543 6.795875072479248 31.32172775268555 8.237415313720703 C 31.42688751220703 9.842965126037598 31.09991836547852 11.56991481781006 30.34989738464355 13.37029457092285 C 29.39837837219238 15.65358543395996 27.77333831787109 18.0363655090332 25.51992797851563 20.45239448547363 C 23.05597877502441 23.09416007995605 19.82766914367676 25.78629875183105 15.92039775848389 28.4578685760498 Z" stroke="none"/>
    <path d="M 15.92039680480957 27.85131454467773 C 19.67051124572754 25.26437377929688 22.77483940124512 22.66252136230469 25.15428733825684 20.11135482788086 C 27.36700820922852 17.73894500732422 28.95979690551758 15.40619468688965 29.88834762573242 13.1780252456665 C 31.6150074005127 9.033245086669922 30.68618774414063 6.226485252380371 29.60295867919922 4.601755142211914 C 28.12175750732422 2.380115032196045 25.42925834655762 1.000005006790161 22.57618713378906 1.000005006790161 C 20.20259857177734 1.000005006790161 18.11341857910156 1.953104972839355 16.6934871673584 3.683735132217407 L 15.92039775848389 4.625985145568848 L 15.14730739593506 3.683735132217407 C 13.72737789154053 1.953104972839355 11.63819789886475 1.000005006790161 9.264607429504395 1.000005006790161 C 6.411837577819824 1.000005006790161 3.719457864761353 2.380204916000366 2.238147735595703 4.602005004882813 C 1.154857754707336 6.226815223693848 0.2259377539157867 9.033615112304688 1.952407717704773 13.17790508270264 C 2.880997657775879 15.40619468688965 4.473787784576416 17.73894500732422 6.686507701873779 20.11135482788086 C 9.065956115722656 22.66252136230469 12.17027473449707 25.26437377929688 15.92039680480957 27.85131454467773 M 15.92039775848389 29.062744140625 C 7.360097885131836 23.25987434387207 2.870567798614502 17.98081588745117 1.029347777366638 13.562575340271 C -2.42770528793335 5.264074802398682 3.459220409393311 5.917358521401184e-06 9.264602661132813 5.917358521401184e-06 C 11.74236869812012 5.917358521401184e-06 14.20493412017822 0.9586098790168762 15.92039775848389 3.049434900283813 C 17.63551139831543 0.9590365290641785 20.09893798828125 5.917358521401184e-06 22.57619285583496 5.917358521401184e-06 C 28.38206672668457 5.917358521401184e-06 34.26880264282227 5.263352394104004 30.81144714355469 13.562575340271 C 28.97022819519043 17.98081588745117 24.48068809509277 23.25987434387207 15.92039775848389 29.062744140625 Z" stroke="none" fill="#ffa3a3"/>
  </g>
  <g id="マスクグループ_1" data-name="マスクグループ 1" clip-path="url(#clip-path)">
    <path id="パス_6" data-name="パス 6" d="M1768.434-968.479s3.685-6.857,11.037-7.009,8.84,6.924,14.686,7.009,5.537-5.961,13.876-7.009,12.808,0,12.808,0v40.979h-52.407Z" transform="translate(-1783 968.763)" fill="#ff6f6f"/>
  </g>
</svg>
